# xmcd
# 
# Track frame offsets:
#     150
#     15827
#     29779
#     45681
#     62408
#     74635
#     91137
#     102464
#     115966
#     130893
#     141920
#     161797
#     179274
#     193901
#     207778
#     221505
#     239207
#     264259
# 
# Disc length: 3699
# 
# Revision: 3
# Processed by: cddbd v1.5.2PL0 Copyright (c) Steve Scherf et al.
# Submitted via: fre:ac v1.0.27
# 
DISCID=110e7112
DTITLE=Various Artist - The Winners 4 [CD2]
DYEAR=1996
DGENRE=Country
TTITLE0=Gina Jefferys - Mercedes Benz
TTITLE1=Mark O'Shea - When I Was Your Age
TTITLE2=Phil and Tammy Emmanuel - Love Gone West
TTITLE3=Col Elliott - Henry, Banjo and Me
TTITLE4=Saunders, Kane and Del - Precious Darling
TTITLE5=Michael Fix - Sun Daze
TTITLE6=Rosemary Roe and Graeme Connors - Slowly But Surely
TTITLE7=John Willamson - My Oath To Australia
TTITLE8=The Crosby Sisters - Hey Mister
TTITLE9=The Fargone Sisters - Top Hog
TTITLE10=Rex Dallas - King Of Them All
TTITLE11=Tanya Self - He Just Knows
TTITLE12=Anne Kirkpatrick and Troy Casser-Daley - You Ain't Goin' Nowhere
TTITLE13=Slim Dusty - Me And Matilda
TTITLE14=Laurel Edwards - Little Girl's Dreams
TTITLE15=Smoky Dawson and John Farnham - Cool Water
TTITLE16=Felicity - Follow Me I'll Follow You
TTITLE17=Champion, Haynes and Egan - Don't Cal Wagga Wagga Wagga
EXTD=YEAR: 1996
EXTT0=
EXTT1=
EXTT2=
EXTT3=
EXTT4=
EXTT5=
EXTT6=
EXTT7=
EXTT8=
EXTT9=
EXTT10=
EXTT11=
EXTT12=
EXTT13=
EXTT14=
EXTT15=
EXTT16=
EXTT17=
PLAYORDER=
